<mxfile host="app.diagrams.net" modified="2023-10-05T20:01:35.576Z" agent="Mozilla/5.0 (Windows NT 10.0; Win64; x64; rv:109.0) Gecko/20100101 Firefox/118.0" etag="JP5UyUwKNgJj0Z-3n4NQ" version="22.0.3" type="device">
  <diagram name="Seite-1" id="9Le5s8pwN0CyODzGWcbu">
    <mxGraphModel dx="1050" dy="566" grid="1" gridSize="10" guides="1" tooltips="1" connect="1" arrows="1" fold="1" page="1" pageScale="1" pageWidth="827" pageHeight="1169" math="0" shadow="0">
      <root>
        <mxCell id="0" />
        <mxCell id="1" parent="0" />
        <mxCell id="wTdoZe6g1H_c_I77rudQ-1" value="Struktur" style="rounded=1;whiteSpace=wrap;html=1;shadow=1;labelBackgroundColor=none;strokeColor=none;strokeWidth=3;fillColor=#9090d5;fontFamily=Helvetica;fontSize=18;fontColor=#FFFFFF;align=center;spacing=5;arcSize=7;perimeterSpacing=2;" vertex="1" parent="1">
          <mxGeometry x="200" y="40" width="130" height="40" as="geometry" />
        </mxCell>
        <mxCell id="wTdoZe6g1H_c_I77rudQ-2" value="Verhalten" style="rounded=1;whiteSpace=wrap;html=1;shadow=1;labelBackgroundColor=none;strokeColor=none;strokeWidth=3;fillColor=#9090d5;fontFamily=Helvetica;fontSize=18;fontColor=#FFFFFF;align=center;spacing=5;arcSize=7;perimeterSpacing=2;" vertex="1" parent="1">
          <mxGeometry x="270" y="110" width="130" height="40" as="geometry" />
        </mxCell>
        <mxCell id="wTdoZe6g1H_c_I77rudQ-3" value="Interaktionen" style="rounded=1;whiteSpace=wrap;html=1;shadow=1;labelBackgroundColor=none;strokeColor=none;strokeWidth=3;fillColor=#9090d5;fontFamily=Helvetica;fontSize=18;fontColor=#FFFFFF;align=center;spacing=5;arcSize=7;perimeterSpacing=2;" vertex="1" parent="1">
          <mxGeometry x="280" y="180" width="140" height="40" as="geometry" />
        </mxCell>
        <mxCell id="wTdoZe6g1H_c_I77rudQ-4" value="&lt;div style=&quot;font-size: 18px;&quot;&gt;Kontext&lt;/div&gt;" style="rounded=1;whiteSpace=wrap;html=1;shadow=1;labelBackgroundColor=none;strokeColor=none;strokeWidth=3;fillColor=#9090d5;fontFamily=Helvetica;fontSize=18;fontColor=#FFFFFF;align=center;spacing=5;arcSize=7;perimeterSpacing=2;" vertex="1" parent="1">
          <mxGeometry x="270" y="250.5" width="130" height="40" as="geometry" />
        </mxCell>
        <mxCell id="wTdoZe6g1H_c_I77rudQ-5" style="sketch=0;orthogonalLoop=1;jettySize=auto;html=1;shadow=0;strokeColor=#6666FF;strokeWidth=3;fontSize=26;endArrow=none;endFill=0;" edge="1" parent="1" source="wTdoZe6g1H_c_I77rudQ-9" target="wTdoZe6g1H_c_I77rudQ-1">
          <mxGeometry relative="1" as="geometry" />
        </mxCell>
        <mxCell id="wTdoZe6g1H_c_I77rudQ-6" style="sketch=0;orthogonalLoop=1;jettySize=auto;html=1;shadow=0;strokeColor=#6666FF;strokeWidth=3;fontSize=26;endArrow=none;endFill=0;" edge="1" parent="1" source="wTdoZe6g1H_c_I77rudQ-9" target="wTdoZe6g1H_c_I77rudQ-2">
          <mxGeometry relative="1" as="geometry" />
        </mxCell>
        <mxCell id="wTdoZe6g1H_c_I77rudQ-7" style="sketch=0;orthogonalLoop=1;jettySize=auto;html=1;shadow=0;strokeColor=#6666FF;strokeWidth=3;fontSize=26;endArrow=none;endFill=0;" edge="1" parent="1" source="wTdoZe6g1H_c_I77rudQ-9" target="wTdoZe6g1H_c_I77rudQ-3">
          <mxGeometry relative="1" as="geometry" />
        </mxCell>
        <mxCell id="wTdoZe6g1H_c_I77rudQ-8" style="sketch=0;orthogonalLoop=1;jettySize=auto;html=1;shadow=0;strokeColor=#6666FF;strokeWidth=3;fontSize=26;endArrow=none;endFill=0;" edge="1" parent="1" source="wTdoZe6g1H_c_I77rudQ-9" target="wTdoZe6g1H_c_I77rudQ-4">
          <mxGeometry relative="1" as="geometry" />
        </mxCell>
        <mxCell id="wTdoZe6g1H_c_I77rudQ-9" value="Perspektive" style="rounded=1;whiteSpace=wrap;html=1;shadow=1;labelBackgroundColor=none;strokeColor=none;strokeWidth=3;fillColor=#4A4ABA;fontFamily=Helvetica;fontSize=26;fontColor=#FFFFFF;align=center;spacing=5;fontStyle=0;arcSize=7;perimeterSpacing=2;" vertex="1" parent="1">
          <mxGeometry x="40" y="180" width="180" height="60" as="geometry" />
        </mxCell>
      </root>
    </mxGraphModel>
  </diagram>
</mxfile>
